<svg width="417.12000732421876" height="104.70266808551156" viewBox="-4 0 374.0243902439025 93.88509517634779" class="css-1j8o68f"><defs id="SvgjsDefs3385"></defs><g id="SvgjsG3386" featurekey="HKaMnE-0" transform="matrix(1.330642900212198,0,0,1.330642900212198,-17.040300675879532,-8.124936408320337)" fill="#3dd2cc"><g xmlns="http://www.w3.org/2000/svg"><rect x="10.1" y="70.8" fill="#3dd2cc" width="82.7" height="3"></rect><polygon fill="#3dd2cc" points="24.9,32.3 32.2,39.7 39.8,32.1 47.1,39.4 54,32.5 61.8,40.2 69.8,32.2 77.4,39.8 84.7,32.6    91,38.9 93.2,36.8 84.7,28.3 77.4,35.6 69.8,28 61.8,36 54,28.2 47.1,35.2 39.8,27.9 32.2,35.4 24.9,28.1 17.6,35.3 11.9,29.6    9.8,31.7 17.6,39.6  "></polygon><path fill="#3dd2cc" d="M89.4,52.5c-0.9-1.9-2-4.3-4.7-4.3c-2.7,0-3.6,2.4-4.3,4.1c-0.8,2.2-1.3,3.1-2.9,3.1c-1.6,0-2.2-1-3.1-3.3   c-0.7-1.8-1.7-4.3-4.5-4.3c-2.8,0-3.9,2.5-4.8,4.5c-1.1,2.4-1.7,3.5-3.2,3.5c-1.3,0-1.8-0.8-2.6-3c-0.8-2-1.8-4.8-5.2-4.8   c-3.4,0-4.2,2.7-4.8,4.5c-0.6,2-0.9,2.5-2.2,2.5c-1.4,0-1.8-0.8-2.5-2.8c-0.6-1.8-1.6-4.5-4.8-4.5c-3.1,0-4,2.6-4.7,4.5   c-0.8,2.2-1.2,3.1-2.9,3.1c-1.5,0-1.9-0.7-2.5-2.9c-0.6-1.9-1.4-4.7-4.9-4.5c-3.4,0.1-4.2,2.8-4.8,4.6c-0.6,2-1,2.6-2.4,2.7   c-1.6,0-2-0.7-2.7-2.8c-0.5-1.6-1.3-4-4.1-4v3c0.5,0,0.7,0.1,1.2,1.9c0.6,1.8,1.6,4.8,5.5,4.8c0,0,0,0,0,0c3.8,0,4.7-2.9,5.3-4.8   c0.6-1.9,0.9-2.4,2-2.5c1,0,1.3,0.3,1.9,2.4c0.6,2,1.5,5,5.4,5c3.9,0,5-3.1,5.7-5.1c0.7-2.1,1-2.5,1.9-2.5c0.9,0,1.2,0.5,1.9,2.5   c0.7,1.9,1.7,4.8,5.4,4.8c3.6,0,4.5-2.8,5-4.6c0.6-2,0.9-2.3,1.9-2.3c1.1,0,1.5,0.6,2.4,2.8c0.8,2.1,1.9,4.9,5.4,4.9   c3.6,0,5-3,6-5.3c0.8-1.7,1.3-2.7,2.1-2.7c0.6,0,1,0.6,1.7,2.4c0.8,2.1,2.1,5.2,5.9,5.2c3.8,0,5-3,5.8-5c0.7-1.8,1-2.2,1.5-2.2   c0.7,0,1.2,0.8,2,2.6c0.9,2,2.2,4.8,5.5,4.8v-3C90.9,55.5,90.3,54.5,89.4,52.5z"></path></g></g><g id="SvgjsG3387" featurekey="J3GnXt-0" transform="matrix(3.2384595388036725,0,0,3.2384595388036725,130.04951229831352,13.807702305981636)" fill="#122d42"><path d="M11.27 20 l-1.0254 -2.9102 l-5.9277 0 l-1.0254 2.9102 l-2.998 0 l5.1953 -14.111 l3.584 0 l5.1953 14.111 l-2.998 0 z M5.1758 14.6387 l4.209 0 l-2.0996 -5.9863 z M18.710946875 11.5527 c0.50781 -0.88867 1.8262 -1.709 3.2813 -1.709 l0 2.5098 c-2.1289 0 -3.1445 0.625 -3.1445 2.7539 l0 4.8926 l-2.832 0 l0 -10.039 l2.6953 0 l0 1.5918 z M28.1836 20.18555 c-3.1543 0 -5.3809 -2.0996 -5.3809 -5.2148 c0 -3.125 2.2266 -5.2051 5.3809 -5.2051 c2.5391 0 4.4434 1.3184 4.9316 3.6914 l-2.5977 0.2832 c-0.3125 -1.2012 -1.1816 -1.7578 -2.3633 -1.7578 c-1.5137 0 -2.5391 1.1914 -2.5391 2.9883 c0 1.7871 1.0254 2.9883 2.5391 2.9883 c1.1816 0 2.0508 -0.56641 2.3633 -1.7578 l2.5977 0.2832 c-0.48828 2.373 -2.4414 3.7012 -4.9316 3.7012 z M41.357409375 5.888999999999999 c2.7637 0 4.4824 2.0508 4.4824 4.5605 c0 2.5684 -1.7188 4.4922 -4.4824 4.4922 l-2.9395 0 l0 5.0586 l-2.9297 0 l0 -14.111 l5.8691 0 z M40.869109375 12.4902 c1.4648 0 2.1484 -0.81055 2.1484 -2.0801 c0 -1.2207 -0.68359 -2.0703 -2.1484 -2.0703 l-2.4512 0 l0 4.1504 l2.4512 0 z M47.929709375 20 l0 -15 l2.8418 0 l0 15 l-2.8418 0 z M61.9140625 17.2754 c0 1.2305 0.11719 2.0117 0.24414 2.4512 l0 0.27344 l-2.627 0 l-0.22461 -1.0938 c-0.75195 0.9082 -2.0508 1.2891 -3.2227 1.2891 c-1.582 0 -3.125 -0.70313 -3.125 -2.793 c0 -2.0801 1.5527 -2.7832 3.6523 -3.2422 l1.6504 -0.37109 c0.71289 -0.16602 0.9668 -0.41016 0.9668 -0.82031 c0 -0.98633 -0.89844 -1.2598 -1.6895 -1.2598 c-1.0156 0 -1.7871 0.40039 -1.9629 1.5332 l-2.4902 -0.44922 c0.41992 -2.0801 1.9434 -3.0273 4.6094 -3.0273 c2.0117 0 4.2188 0.5957 4.2188 3.623 l0 3.8867 z M56.9628625 18.291 c1.3379 0 2.4121 -0.88867 2.4121 -2.8809 l-2.3828 0.67383 c-0.78125 0.18555 -1.3477 0.45898 -1.3477 1.1328 c0 0.72266 0.5957 1.0742 1.3184 1.0742 z M71.220659375 9.961 l2.8809 0 l-6.1914 14.766 l-2.8516 0 l2.2949 -5.1367 l-4.1309 -9.6289 l3.0664 0 l2.3926 6.6016 z"></path></g></svg>